# xmcd
# Copyright (C) 1995-1998 Ti Kan
#
# Track frame offsets:
#       150
#       13825
#       30675
#       49145
#       61670
#       81222
#       101250
#       125510
#       154534
#       179767
#       209317
#
# Disc length: 3344 seconds
#
# Revision: 0
# Processed by: cddbd v1.5.2PL0 Copyright (c) Steve Scherf et al.
# Submitted via: CD-Import v1.0
#
DISCID=8b0d0e0b
DTITLE=Celtic Dreams - Reflections Of Nature
DYEAR=1900
DGENRE=
TTITLE0=Cockles and Mussels
TTITLE1=Early On Morning
TTITLE2=O'kane
TTITLE3=Eileen Aroon
TTITLE4=The Irish Washerwoman
TTITLE5=Kathleen
TTITLE6=Anglers
TTITLE7=Scarborough Fair
TTITLE8=The Rose Of Tralee
TTITLE9=Amazing Grace - Kelly's Korner
TTITLE10=My Love Is Like A Red Red Rose - The Irish Rower
EXTD=
EXTT0=
EXTT1=
EXTT2=
EXTT3=
EXTT4=
EXTT5=
EXTT6=
EXTT7=
EXTT8=
EXTT9=
EXTT10=
PLAYORDER=
